<!DOCTYPE svg PUBLIC "-//W3C//DTD SVG 1.1//EN" "http://www.w3.org/Graphics/SVG/1.1/DTD/svg11.dtd">
<!-- Uploaded to: SVG Repo, www.svgrepo.com, Transformed by: SVG Repo Mixer Tools -->
<svg fill="#ebebeb" width="800px" height="800px" viewBox="0 0 19.00 19.00" xmlns="http://www.w3.org/2000/svg" class="cf-icon-svg" stroke="#ebebeb" stroke-width="0.00019">
<g id="SVGRepo_bgCarrier" stroke-width="0"/>
<g id="SVGRepo_tracerCarrier" stroke-linecap="round" stroke-linejoin="round"/>
<g id="SVGRepo_iconCarrier">
<path d="M16.417 9.583A7.917 7.917 0 1 1 8.5 1.666a7.917 7.917 0 0 1 7.917 7.917zM5.85 3.309a6.833 6.833 0 1 0 2.65-.534 6.787 6.787 0 0 0-2.65.534zm2.654 1.336A1.136 1.136 0 1 1 7.37 5.78a1.136 1.136 0 0 1 1.135-1.136zm.792 9.223V8.665a.792.792 0 1 0-1.583 0v5.203a.792.792 0 0 0 1.583 0z"/>
</g>
</svg>