<?xml version="1.0" encoding="UTF-8"?>
<svg version="1.1" xmlns="http://www.w3.org/2000/svg" width="109" height="109">
<path d="M0 0 C1.32 0 2.64 0 4 0 C4 4.29 4 8.58 4 13 C12.25 13 20.5 13 29 13 C29 8.71 29 4.42 29 0 C31.475 0.495 31.475 0.495 34 1 C34 4.96 34 8.92 34 13 C35.75828125 12.95359375 37.5165625 12.9071875 39.328125 12.859375 C41.6353997 12.82185834 43.94269274 12.78545807 46.25 12.75 C47.40886719 12.71648438 48.56773438 12.68296875 49.76171875 12.6484375 C50.87675781 12.63554687 51.99179688 12.62265625 53.140625 12.609375 C54.16704102 12.58842773 55.19345703 12.56748047 56.25097656 12.54589844 C59.72666693 13.12003557 60.87452187 14.24291742 63 17 C63.99960473 22.62277663 64.01522432 28.94439177 61.375 34.125 C58.64230702 37.43299676 57.09559964 38.71064456 53 40 C51.26435383 40.07154701 49.52601573 40.09049125 47.7890625 40.06640625 C46.8913916 40.05681885 45.9937207 40.04723145 45.06884766 40.03735352 C44.38612793 40.02502686 43.7034082 40.0127002 43 40 C43.15146484 40.85754883 43.30292969 41.71509766 43.45898438 42.59863281 C44.02077805 45.78875657 44.5795259 48.9793947 45.13623047 52.17041016 C45.37752807 53.54985509 45.62002897 54.9290901 45.86376953 56.30810547 C46.21444977 58.29338504 46.56040683 60.27949708 46.90625 62.265625 C47.22045898 64.05661621 47.22045898 64.05661621 47.54101562 65.88378906 C48 69 48 69 48 73 C52.29 73 56.58 73 61 73 C61 74.65 61 76.3 61 78 C31.96 78 2.92 78 -27 78 C-27.495 75.525 -27.495 75.525 -28 73 C-23.71 73 -19.42 73 -15 73 C-14.85377197 72.0713916 -14.70754395 71.1427832 -14.55688477 70.18603516 C-14.01346941 66.74533867 -13.46709728 63.30513908 -12.91870117 59.86523438 C-12.6818331 58.3755144 -12.44614982 56.88560555 -12.21166992 55.39550781 C-11.87468813 53.25535284 -11.53346987 51.11591035 -11.19140625 48.9765625 C-10.98717041 47.68830566 -10.78293457 46.40004883 -10.57250977 45.07275391 C-10 42 -10 42 -9 40 C-9.72445313 40.03480469 -10.44890625 40.06960937 -11.1953125 40.10546875 C-21.51076272 40.39430136 -21.51076272 40.39430136 -26 37 C-30.43037457 31.63691499 -30.46711037 26.81113393 -30.53125 19.98828125 C-29.87344248 16.28811394 -28.91589385 15.31385758 -26 13 C-23.25097656 12.45410156 -23.25097656 12.45410156 -20.140625 12.390625 C-19.02558594 12.35839844 -17.91054688 12.32617188 -16.76171875 12.29296875 C-15.60285156 12.27878906 -14.44398437 12.26460937 -13.25 12.25 C-12.07566406 12.22035156 -10.90132812 12.19070312 -9.69140625 12.16015625 C-6.79420178 12.08949273 -3.89780045 12.03677734 -1 12 C-1.01160156 11.30132812 -1.02320312 10.60265625 -1.03515625 9.8828125 C-1.04417969 8.97273438 -1.05320312 8.06265625 -1.0625 7.125 C-1.07410156 6.22007813 -1.08570312 5.31515625 -1.09765625 4.3828125 C-1 2 -1 2 0 0 Z M-25 18 C-26.07681744 28.94942243 -26.07681744 28.94942243 -22.94934082 33.20956421 C-19.30509858 35.42184897 -17.06588627 35.63365069 -12.81054688 35.64697266 C-12.10583755 35.65573425 -11.40112823 35.66449585 -10.67506409 35.67352295 C-8.35565831 35.69545221 -6.03817365 35.68098981 -3.71875 35.6640625 C-2.10119258 35.66743256 -0.48363764 35.67228677 1.13391113 35.67855835 C4.52002123 35.68592081 7.90547075 35.6752452 11.29150391 35.65185547 C15.62632068 35.62336706 19.95958966 35.63977453 24.29434967 35.66971779 C27.63335783 35.6878083 30.97200057 35.68202492 34.3110199 35.66907883 C35.90897303 35.66574961 37.50695961 35.66981491 39.10487366 35.68147659 C41.34098839 35.69421553 43.57461684 35.6747718 45.81054688 35.64697266 C47.71652649 35.64100571 47.71652649 35.64100571 49.66101074 35.63491821 C53.08069178 35.18653603 53.08069178 35.18653603 55.94934082 33.20956421 C59.07681744 28.94942243 59.07681744 28.94942243 58 18 C30.61 18 3.22 18 -25 18 Z M-4 40 C-6.71163072 50.84652289 -8.2336125 61.96007812 -10 73 C7.49 73 24.98 73 43 73 C41.62004583 61.96036666 39.93345676 50.95625496 38 40 C24.14 40 10.28 40 -4 40 Z " fill="#060606" transform="translate(38,15)"/>
</svg>
